<svg id="Layer_1" data-name="Layer 1" xmlns="http://www.w3.org/2000/svg" xmlns:xlink="http://www.w3.org/1999/xlink" viewBox="0 0 700.55 1097.78"><defs><style>.cls-1,.cls-2,.cls-3,.cls-4{fill-rule:evenodd;}.cls-1{fill:url(#linear-gradient);}.cls-2{fill:url(#linear-gradient-2);}.cls-3{fill:url(#linear-gradient-3);}.cls-4{fill:url(#linear-gradient-4);}</style><linearGradient id="linear-gradient" x1="515.63" y1="1317.55" x2="264.48" y2="-399.45" gradientUnits="userSpaceOnUse"><stop offset="0" stop-color="#ed1c24"/><stop offset="1" stop-color="#fcee21"/></linearGradient><linearGradient id="linear-gradient-2" x1="755.44" y1="1282.03" x2="504.29" y2="-434.98" xlink:href="#linear-gradient"/><linearGradient id="linear-gradient-3" x1="709.99" y1="1453.16" x2="458.84" y2="-263.85" xlink:href="#linear-gradient"/><linearGradient id="linear-gradient-4" x1="810.24" y1="1639.5" x2="559.08" y2="-77.5" xlink:href="#linear-gradient"/></defs><path class="cls-1" d="M683.4,1138.89c-100.89-4.25-215.66-67.62-232.08-165.66-9.39,15.1-41.17-.85-35.62,19.56-70.62-44.65-64.64-88.68-42-172.47-24.53,12.33-62.29-10.21-67.41,16.59-22.83-108-19.41-153.76,3.2-232A347.2,347.2,0,0,0,249.73,799.7c0,192.88,156.79,349.19,350.27,349.19a346.69,346.69,0,0,0,83.4-10Z" transform="translate(-249.73 -51.11)"/><path class="cls-2" d="M507.42,893.9c12.58,99.53,74.66,184.17,179.19,196.3,72.31,8.5,149.32-21.27,195.19-83.16a347.66,347.66,0,0,0,42.66-75.71c-59.09,78.69-236.14,47.85-212.89-71,8.95-50-17.71-118.66-48.64-156.74,18.56,49.14-34.77,112.51-69.12,56.79C562.24,709.1,591.89,590.64,618.35,546c-16.22,9.14-16.64-15.32-29,.42C645,459,593.6,422.64,538.56,342.25,577.6,426,556.7,484.1,525.34,544.7c-37.12,71.46-84.9,135.47-64.21,227.13,17.28-34.24,45.22-64.43,77.43-85.7C514.67,752.7,498.67,825,507.42,893.9Z" transform="translate(-249.73 -51.11)"/><path class="cls-3" d="M309.46,604.89a353.84,353.84,0,0,0-6,297.52,88.27,88.27,0,0,1,47.36-61.88c-22.4,83.57,11.94,179.28,82.33,223.93-5.54-20.41-5.33-48.06,4.06-63.16,16.42,97.82,154,159.29,246.16,137.59a388.45,388.45,0,0,0,44.59-14c-171.72,21.27-296.94-175-244.67-338.78a127.42,127.42,0,0,0-38.83,62.74c-45.86-127.39-4.69-211.18,57.6-317.3,31.15-53.38,57.8-109.95,36.47-189.27,55,80.39,62.51,192.89,7.05,280.08,12.37-15.53,30.08-34.88,46.28-44-26.23,44.66-35,151.84-3.41,203.1C623,837.12,692,794.59,673.38,745.46c30.94,38.07,6.83,85.92-2.13,135.9-28.59,159.71,185.16,200.32,253.21,50A346.43,346.43,0,0,0,950.27,799.7c0-154.4-134.18-264.14-99.19-393-50.13,34.88-62.72,78.47-64.21,135.46-.86,37.43,1.28,74-20,117.18,10.45-32.11,12.37-135.89-21.12-144-25.18-6-80-14.88-67.41,7.65-30.94-21.69-7-23.6-4.91-56.35C680,368,659.51,311.84,601.07,243.79c-38-44-100.69-82.31-146.55-141.64,7.46,65.93,59.09,111,43.73,182.25-3-41.47-22.61-87.83-51.41-109.1,19.41,44.67,20.69,95.49,8.32,142.28-23.25,87.19-89.6,156.52-113.07,245.63-17.7,68-8.1,134.82,30.72,193.95-44.36-27.65-71.88-99.32-63.35-152.27Z" transform="translate(-249.73 -51.11)"/><path class="cls-4" d="M575.69,257.61c58.44,68.05,87.66,145.25,81,243.93-2.13,32.74-6,74,25.17,95.7-12.79-22.55,7.9-45.94,33.07-40,33.49,8.08,58.66,61,51.84,102.07C797.75,577,776,473.68,738,397.54c-43.09-87-113.7-163.12-186.87-221C507,141.71,465.82,103.21,458.36,51.11a142.67,142.67,0,0,0-3.84,51c6.82,60.18,83.19,111.44,121.17,155.46Z" transform="translate(-249.73 -51.11)"/></svg>